<?xml version="1.0" encoding="UTF-8" standalone="no"?>
<svg xmlns="http://www.w3.org/2000/svg" version="1.1" viewBox="0 0 100 100">
 <g transform="translate(0 -270.54)">
  <g stroke="#000" fill="none">
   <circle cx="50" cy="296.35" r="12.5"/>
   <circle cy="344.74" cx="22.143" r="12.5"/>
   <circle cx="77.857" cy="344.74" r="12.5"/>
  </g>
  <g font-size="42.667px" font-family="&apos;Myriad Pro&apos;" fill="#000000">
   <text id="name-b" style="word-spacing:0px;letter-spacing:0px;text-anchor:middle;text-align:center" xml:space="preserve" line-height="1.25" y="298.25146" x="49.880207"><tspan font-size="5.3333px" y="298.25146" x="49.880207" font-family="sans-serif">B</tspan></text>
   <text id="name-c" style="word-spacing:0px;letter-spacing:0px;text-anchor:middle;text-align:center" xml:space="preserve" line-height="1.25" y="346.64432" x="22.023067"><tspan font-size="5.3333px" y="346.64432" x="22.023067" font-family="sans-serif">C</tspan></text>
   <text id="name-a" style="word-spacing:0px;letter-spacing:0px;text-anchor:middle;text-align:center" xml:space="preserve" line-height="1.25" y="346.64432" x="77.73735"><tspan font-size="5.3333px" y="346.64432" x="77.73735" font-family="sans-serif">A</tspan></text>
  </g>
  <g transform="translate(0 -1.9996)" stroke="#000">
   <g stroke-width="2" fill="none">
    <path id="conn-ca-conflict" d="m38 344.74h24"/>
    <path id="conn-ca-contact" d="m38 340.74h24"/>
    <path id="conn-ca-distance" d="m38 348.74h24"/>
    <path id="conn-ca-polarization" d="m38 352.74h24"/>
   </g>
   <path id="conn-ca-polarization-to-a" d="m62 353.74v-2l1.4029 0.99995z" stroke-width="1px"/>
   <path id="conn-ca-polarization-to-c" d="m38 353.74v-2l-1.4029 0.99995z" stroke-width="1px"/>
   <g transform="rotate(60 79.072 347.59)">
    <g stroke-width="2" fill="none">
     <path id="conn-ab-conflict" d="m38 344.74h24"/>
     <path id="conn-ab-contact" d="m38 340.74h24"/>
     <path id="conn-ab-distance" d="m38 348.74h24"/>
    </g>
    <path id="conn-ab-polarization-to-a" d="m62 353.74v-2l1.4029 0.99995z" stroke-width="1px"/>
    <path id="conn-ab-polarization-to-b" d="m38 353.74v-2l-1.4029 0.99995z" stroke-width="1px"/>
    <path id="conn-ab-polarization" d="m38 352.74h24" stroke-width="2" fill="none"/>
   </g>
   <g transform="matrix(-.5 .86603 .86603 .5 -239.8 105.32)">
    <g stroke-width="2" fill="none">
     <path id="conn-bc-conflict" d="m38 344.74h24"/>
     <path id="conn-bc-contact" d="m38 340.74h24"/>
     <path id="conn-bc-distance" d="m38 348.74h24"/>
    </g>
    <path id="conn-bc-polarization-to-c" d="m62 353.74v-2l1.4029 0.99995z" stroke-width="1px"/>
    <path id="conn-bc-polarization-to-b" d="m38 353.74v-2l-1.4029 0.99995z" stroke-width="1px"/>
    <path id="conn-bc-polarization" d="m38 352.74h24" stroke-width="2" fill="none"/>
   </g>
  </g>
 </g>
</svg>
